<svg width="256" height="256" viewBox="0 0 256 256" fill="none" xmlns="http://www.w3.org/2000/svg">
<path fill-rule="evenodd" clip-rule="evenodd" d="M125.711 88.6658L184.775 134.812L194.01 122.992L134.945 76.8457L125.711 88.6658ZM111.902 107.489L160.936 145.799L170.171 133.979L121.137 95.6689L111.902 107.489Z" fill="#656489"/>
<path fill-rule="evenodd" clip-rule="evenodd" d="M142.202 34.2504L155.391 32.6311L83.7446 124.334L82.1252 111.145L142.202 34.2504ZM121.147 36.8357L73.7162 42.6594L79.54 90.09L121.147 36.8357ZM182.929 127.986L91.1194 139.259L171.656 36.1763L182.929 127.986ZM71.8882 27.7712L57 29.5993L58.828 44.4875L70.7712 141.757L72.5993 156.645L87.4875 154.817L184.757 142.874L199.645 141.046L197.817 126.158L185.874 28.8882L184.046 14L169.158 15.828L71.8882 27.7712Z" fill="url(#paint0_linear)"/>
<path d="M59.312 193.041V234H50.78V193.932L59.312 193.041ZM77.996 205.326L68.573 218.016L78.779 234H69.059L59.636 218.286L69.059 205.326H77.996ZM107.297 225.738C107.297 226.818 107.441 227.601 107.729 228.087C108.035 228.573 108.521 228.942 109.187 229.194L107.432 234.81C105.74 234.648 104.309 234.279 103.139 233.703C101.987 233.109 101.078 232.218 100.412 231.03C99.3139 232.344 97.9099 233.325 96.1999 233.973C94.4899 234.603 92.7439 234.918 90.9619 234.918C88.0099 234.918 85.6519 234.081 83.8879 232.407C82.1419 230.715 81.2689 228.546 81.2689 225.9C81.2689 222.786 82.4839 220.383 84.9139 218.691C87.3619 216.999 90.7999 216.153 95.2279 216.153H99.0889V215.073C99.0889 212.139 97.1989 210.672 93.4189 210.672C92.5009 210.672 91.3219 210.807 89.8819 211.077C88.4419 211.329 87.0019 211.698 85.5619 212.184L83.5909 206.514C85.4449 205.812 87.3709 205.281 89.3689 204.921C91.3849 204.561 93.1849 204.381 94.7689 204.381C99.0349 204.381 102.185 205.254 104.219 207C106.271 208.728 107.297 211.23 107.297 214.506V225.738ZM93.9049 228.816C94.8229 228.816 95.7859 228.546 96.7939 228.006C97.8019 227.448 98.5669 226.665 99.0889 225.657V221.013H96.9829C94.6069 221.013 92.8609 221.382 91.7449 222.12C90.6289 222.84 90.0709 223.902 90.0709 225.306C90.0709 226.404 90.4039 227.268 91.0699 227.898C91.7539 228.51 92.6989 228.816 93.9049 228.816ZM115.538 234V205.326H122.99L123.584 208.647C124.862 207.207 126.212 206.136 127.634 205.434C129.056 204.732 130.676 204.381 132.494 204.381C134.942 204.381 136.868 205.128 138.272 206.622C139.676 208.116 140.378 210.222 140.378 212.94V234H131.846V215.397C131.846 213.633 131.648 212.409 131.252 211.725C130.874 211.023 130.154 210.672 129.092 210.672C128.192 210.672 127.328 210.96 126.5 211.536C125.69 212.112 124.88 212.913 124.07 213.939V234H115.538ZM174.971 205.326L165.413 234H155.369L145.703 205.326H154.91L160.499 227.466L166.331 205.326H174.971ZM204.434 225.738C204.434 226.818 204.578 227.601 204.866 228.087C205.172 228.573 205.658 228.942 206.324 229.194L204.569 234.81C202.877 234.648 201.446 234.279 200.276 233.703C199.124 233.109 198.215 232.218 197.549 231.03C196.451 232.344 195.047 233.325 193.337 233.973C191.627 234.603 189.881 234.918 188.099 234.918C185.147 234.918 182.789 234.081 181.025 232.407C179.279 230.715 178.406 228.546 178.406 225.9C178.406 222.786 179.621 220.383 182.051 218.691C184.499 216.999 187.937 216.153 192.365 216.153H196.226V215.073C196.226 212.139 194.336 210.672 190.556 210.672C189.638 210.672 188.459 210.807 187.019 211.077C185.579 211.329 184.139 211.698 182.699 212.184L180.728 206.514C182.582 205.812 184.508 205.281 186.506 204.921C188.522 204.561 190.322 204.381 191.906 204.381C196.172 204.381 199.322 205.254 201.356 207C203.408 208.728 204.434 211.23 204.434 214.506V225.738ZM191.042 228.816C191.96 228.816 192.923 228.546 193.931 228.006C194.939 227.448 195.704 226.665 196.226 225.657V221.013H194.12C191.744 221.013 189.998 221.382 188.882 222.12C187.766 222.84 187.208 223.902 187.208 225.306C187.208 226.404 187.541 227.268 188.207 227.898C188.891 228.51 189.836 228.816 191.042 228.816Z" fill="black"/>
<defs>
<linearGradient id="paint0_linear" x1="29.4619" y1="2.25148" x2="148.851" y2="170.455" gradientUnits="userSpaceOnUse">
<stop offset="0.192708" stop-color="#1D9BE1"/>
<stop offset="0.885417" stop-color="#21FB9F"/>
</linearGradient>
</defs>
</svg>
